<svg xmlns="http://www.w3.org/2000/svg" style="display: none;">

    <symbol id="icon-logotype" viewBox="0 0 110 28">
      <path d="M0.89043 25V0.499998H7.82043V19.505H19.5104V25H0.89043ZM34.2318 25.49C32.2718 25.49 30.4634 25.175 28.8068 24.545C27.1501 23.915 25.7034 23.0283 24.4668 21.885C23.2534 20.7183 22.3084 19.365 21.6318 17.825C20.9551 16.285 20.6168 14.5933 20.6168 12.75C20.6168 10.9067 20.9551 9.215 21.6318 7.675C22.3084 6.135 23.2534 4.79333 24.4668 3.65C25.7034 2.48333 27.1501 1.585 28.8068 0.954999C30.4634 0.324998 32.2718 0.00999838 34.2318 0.00999838C36.2151 0.00999838 38.0234 0.324998 39.6568 0.954999C41.3134 1.585 42.7484 2.48333 43.9618 3.65C45.1751 4.79333 46.1201 6.135 46.7968 7.675C47.4968 9.215 47.8468 10.9067 47.8468 12.75C47.8468 14.5933 47.4968 16.2967 46.7968 17.86C46.1201 19.4 45.1751 20.7417 43.9618 21.885C42.7484 23.0283 41.3134 23.915 39.6568 24.545C38.0234 25.175 36.2151 25.49 34.2318 25.49ZM34.2318 19.75C35.1651 19.75 36.0284 19.5867 36.8218 19.26C37.6384 18.9333 38.3384 18.4667 38.9218 17.86C39.5284 17.23 39.9951 16.4833 40.3218 15.62C40.6718 14.7567 40.8468 13.8 40.8468 12.75C40.8468 11.6767 40.6718 10.72 40.3218 9.88C39.9951 9.01667 39.5284 8.28167 38.9218 7.675C38.3384 7.045 37.6384 6.56667 36.8218 6.24C36.0284 5.91333 35.1651 5.75 34.2318 5.75C33.2984 5.75 32.4234 5.91333 31.6068 6.24C30.8134 6.56667 30.1134 7.045 29.5068 7.675C28.9234 8.28167 28.4568 9.01667 28.1068 9.88C27.7801 10.72 27.6168 11.6767 27.6168 12.75C27.6168 13.8 27.7801 14.7567 28.1068 15.62C28.4568 16.4833 28.9234 17.23 29.5068 17.86C30.1134 18.4667 30.8134 18.9333 31.6068 19.26C32.4234 19.5867 33.2984 19.75 34.2318 19.75ZM63.7264 25.49C61.7897 25.49 59.993 25.1867 58.3364 24.58C56.6797 23.95 55.2447 23.0633 54.0314 21.92C52.8414 20.7767 51.908 19.435 51.2314 17.895C50.5547 16.3317 50.2164 14.6167 50.2164 12.75C50.2164 10.8833 50.5547 9.18 51.2314 7.64C51.908 6.07667 52.853 4.72333 54.0664 3.58C55.2797 2.43667 56.7147 1.56167 58.3714 0.954999C60.0514 0.324998 61.883 0.00999838 63.8664 0.00999838C66.1764 0.00999838 68.2414 0.394998 70.0614 1.165C71.8814 1.935 73.3864 3.04333 74.5764 4.49L70.1664 8.48C69.3264 7.57 68.4164 6.89333 67.4364 6.45C66.4797 5.98333 65.4064 5.75 64.2164 5.75C63.1664 5.75 62.2097 5.91333 61.3464 6.24C60.483 6.56667 59.748 7.045 59.1414 7.675C58.5347 8.28167 58.0564 9.01667 57.7064 9.88C57.3797 10.72 57.2164 11.6767 57.2164 12.75C57.2164 13.7767 57.3797 14.7217 57.7064 15.585C58.0564 16.4483 58.5347 17.195 59.1414 17.825C59.748 18.4317 60.4714 18.91 61.3114 19.26C62.1747 19.5867 63.1197 19.75 64.1464 19.75C65.173 19.75 66.1764 19.5867 67.1564 19.26C68.1364 18.91 69.128 18.3267 70.1314 17.51L74.0164 22.375C72.6164 23.3783 70.9947 24.1483 69.1514 24.685C67.308 25.2217 65.4997 25.49 63.7264 25.49ZM67.8914 21.465V12.225H74.0164V22.375L67.8914 21.465ZM90.765 25.49C88.805 25.49 86.9966 25.175 85.34 24.545C83.6833 23.915 82.2366 23.0283 81 21.885C79.7866 20.7183 78.8416 19.365 78.165 17.825C77.4883 16.285 77.15 14.5933 77.15 12.75C77.15 10.9067 77.4883 9.215 78.165 7.675C78.8416 6.135 79.7866 4.79333 81 3.65C82.2366 2.48333 83.6833 1.585 85.34 0.954999C86.9966 0.324998 88.805 0.00999838 90.765 0.00999838C92.7483 0.00999838 94.5566 0.324998 96.19 0.954999C97.8466 1.585 99.2816 2.48333 100.495 3.65C101.708 4.79333 102.653 6.135 103.33 7.675C104.03 9.215 104.38 10.9067 104.38 12.75C104.38 14.5933 104.03 16.2967 103.33 17.86C102.653 19.4 101.708 20.7417 100.495 21.885C99.2816 23.0283 97.8466 23.915 96.19 24.545C94.5566 25.175 92.7483 25.49 90.765 25.49ZM90.765 19.75C91.6983 19.75 92.5616 19.5867 93.355 19.26C94.1716 18.9333 94.8716 18.4667 95.455 17.86C96.0616 17.23 96.5283 16.4833 96.855 15.62C97.205 14.7567 97.38 13.8 97.38 12.75C97.38 11.6767 97.205 10.72 96.855 9.88C96.5283 9.01667 96.0616 8.28167 95.455 7.675C94.8716 7.045 94.1716 6.56667 93.355 6.24C92.5616 5.91333 91.6983 5.75 90.765 5.75C89.8316 5.75 88.9566 5.91333 88.14 6.24C87.3466 6.56667 86.6466 7.045 86.04 7.675C85.4566 8.28167 84.99 9.01667 84.64 9.88C84.3133 10.72 84.15 11.6767 84.15 12.75C84.15 13.8 84.3133 14.7567 84.64 15.62C84.99 16.4833 85.4566 17.23 86.04 17.86C86.6466 18.4667 87.3466 18.9333 88.14 19.26C88.9566 19.5867 89.8316 19.75 90.765 19.75Z" />
    </symbol>

    <symbol id="icon-menu" viewBox="0 0 20 15">
      <path d="M0 1C0 0.734784 0.105357 0.48043 0.292893 0.292893C0.48043 0.105357 0.734784 0 1 0H19C19.2652 0 19.5196 0.105357 19.7071 0.292893C19.8946 0.48043 20 0.734784 20 1C20 1.26522 19.8946 1.51957 19.7071 1.70711C19.5196 1.89464 19.2652 2 19 2H1C0.734784 2 0.48043 1.89464 0.292893 1.70711C0.105357 1.51957 0 1.26522 0 1Z"/>
      <path d="M0 7.03198C0 6.76677 0.105357 6.51241 0.292893 6.32488C0.48043 6.13734 0.734784 6.03198 1 6.03198H19C19.2652 6.03198 19.5196 6.13734 19.7071 6.32488C19.8946 6.51241 20 6.76677 20 7.03198C20 7.2972 19.8946 7.55155 19.7071 7.73909C19.5196 7.92663 19.2652 8.03198 19 8.03198H1C0.734784 8.03198 0.48043 7.92663 0.292893 7.73909C0.105357 7.55155 0 7.2972 0 7.03198Z" />
      <path d="M1 12.064C0.734784 12.064 0.48043 12.1693 0.292893 12.3569C0.105357 12.5444 0 12.7987 0 13.064C0 13.3292 0.105357 13.5835 0.292893 13.7711C0.48043 13.9586 0.734784 14.064 1 14.064H19C19.2652 14.064 19.5196 13.9586 19.7071 13.7711C19.8946 13.5835 20 13.3292 20 13.064C20 12.7987 19.8946 12.5444 19.7071 12.3569C19.5196 12.1693 19.2652 12.064 19 12.064H1Z"/>
    </symbol>


    <symbol id="icon-user" viewBox="0 0 38 38">
      <path d="M18.9994 0.666748C9.06085 0.666748 0.666016 9.06158 0.666016 19.0001C0.666016 28.9386 9.06085 37.3334 18.9994 37.3334C28.9379 37.3334 37.3327 28.9386 37.3327 19.0001C37.3327 9.06158 28.9379 0.666748 18.9994 0.666748ZM18.9994 9.83342C22.1655 9.83342 24.4994 12.1654 24.4994 15.3334C24.4994 18.5014 22.1655 20.8334 18.9994 20.8334C15.835 20.8334 13.4994 18.5014 13.4994 15.3334C13.4994 12.1654 15.835 9.83342 18.9994 9.83342ZM9.63835 27.7487C11.2829 25.3287 14.0255 23.7154 17.166 23.7154H20.8327C23.975 23.7154 26.7159 25.3287 28.3604 27.7487C26.0174 30.2567 22.6935 31.8334 18.9994 31.8334C15.3052 31.8334 11.9814 30.2567 9.63835 27.7487Z"/>
    </symbol>

    <symbol id="icon-send" viewBox="0 0 52 52">
      <circle cx="26" cy="26" r="26"/>
      <path d="M19.9641 37.8599L38.439 27.514C38.7104 27.362 38.9364 27.1404 39.0937 26.872C39.2511 26.6036 39.334 26.2981 39.334 25.987C39.334 25.6759 39.2511 25.3704 39.0937 25.102C38.9364 24.8337 38.7104 24.612 38.439 24.46L19.9641 14.114C19.6533 13.9399 19.2967 13.8649 18.942 13.8989C18.5873 13.9328 18.2515 14.0743 17.9794 14.3043C17.7072 14.5343 17.5118 14.8418 17.4192 15.1859C17.3265 15.5299 17.3411 15.894 17.461 16.2296L20.9456 25.9869L17.461 35.7445C17.3924 35.9355 17.3572 36.137 17.3569 36.34C17.3587 36.6447 17.4398 36.9436 17.5923 37.2074C17.7449 37.4711 17.9635 37.6905 18.2267 37.844C18.4899 37.9974 18.7886 38.0796 19.0933 38.0824C19.3979 38.0852 19.698 38.0085 19.964 37.8599L19.9641 37.8599ZM22.4916 26.862L28.8749 26.862C29.107 26.862 29.3295 26.7698 29.4936 26.6057C29.6577 26.4416 29.7499 26.2191 29.7499 25.987C29.7499 25.755 29.6577 25.5324 29.4936 25.3683C29.3295 25.2042 29.107 25.112 28.8749 25.112L22.4916 25.112L19.1099 15.6415L37.5841 25.987L19.1094 36.3321L22.4916 26.862Z"/>
    </symbol>

    <symbol id="icon-playstore" viewBox="0 0 22 22">
      <path d="M2.0625 2.55633V19.443C2.06261 19.4797 2.07354 19.5155 2.09391 19.5459C2.11428 19.5764 2.14319 19.6001 2.17701 19.6142C2.21083 19.6283 2.24806 19.6321 2.28402 19.6251C2.31999 19.6181 2.35309 19.6007 2.37918 19.575L11.1719 11.0001L2.37918 2.42442C2.35309 2.39869 2.31999 2.38125 2.28402 2.37426C2.24806 2.36728 2.21083 2.37107 2.17701 2.38515C2.14319 2.39924 2.11428 2.423 2.09391 2.45345C2.07354 2.48391 2.06261 2.51969 2.0625 2.55633Z"/>
      <path d="M14.8583 7.47645L3.8334 1.40238L3.82653 1.39852C3.6366 1.29539 3.45613 1.55234 3.61168 1.70188L12.254 9.96563L14.8583 7.47645Z"/>
      <path d="M3.61219 20.2981C3.45578 20.4476 3.63625 20.7045 3.82703 20.6014L3.8339 20.5975L14.858 14.5235L12.2536 12.0334L3.61219 20.2981Z"/>
      <path d="M19.3095 9.92577L16.2307 8.23022L13.3359 11L16.2307 13.7685L19.3095 12.0742C20.1469 11.6114 20.1469 10.3885 19.3095 9.92577Z"/>
    </symbol>

    <symbol id="icon-applestore" viewBox="0 0 21 21">
      <path d="M11 0.5C5.19969 0.5 0.5 5.19969 0.5 11C0.5 16.8003 5.19969 21.5 11 21.5C16.8003 21.5 21.5 16.8003 21.5 11C21.5 5.19969 16.8003 0.5 11 0.5ZM7.01562 15.5886C6.95119 15.6985 6.85896 15.7895 6.74821 15.8524C6.63745 15.9154 6.51208 15.9481 6.38469 15.9472C6.25485 15.9483 6.12727 15.9133 6.01625 15.8459C5.93359 15.798 5.8612 15.7343 5.80324 15.6583C5.74528 15.5824 5.70288 15.4957 5.67849 15.4034C5.6541 15.311 5.6482 15.2147 5.66111 15.12C5.67403 15.0254 5.70551 14.9342 5.75375 14.8517L6.47047 13.6602C6.50669 13.5987 6.55836 13.5477 6.62036 13.5123C6.68236 13.477 6.75253 13.4585 6.82391 13.4586H6.92984C7.44969 13.4586 7.81344 13.7712 7.91937 14.0741L7.01562 15.5886ZM13.0836 13.2448L8.39 13.25H5.27047C5.17232 13.2504 5.07511 13.2309 4.98474 13.1926C4.89436 13.1543 4.8127 13.0981 4.74472 13.0273C4.67673 12.9565 4.62384 12.8726 4.58924 12.7808C4.55464 12.6889 4.53906 12.591 4.54344 12.493C4.55844 12.0992 4.90203 11.8011 5.29344 11.8011H7.55469L10.2355 7.23781L9.36734 5.75891C9.17187 5.42188 9.25859 4.9775 9.59375 4.76562C9.67638 4.71219 9.76896 4.67601 9.86592 4.65927C9.96289 4.64253 10.0622 4.64557 10.158 4.6682C10.2538 4.69084 10.344 4.73261 10.4232 4.791C10.5024 4.84939 10.569 4.92319 10.6189 5.00797L11.083 5.80063H11.0881L11.5527 5.00797C11.6027 4.92363 11.6691 4.85022 11.7481 4.79213C11.8271 4.73403 11.917 4.69244 12.0124 4.66982C12.1078 4.6472 12.2068 4.64403 12.3034 4.66049C12.4001 4.67695 12.4925 4.71271 12.575 4.76562C12.9083 4.9775 12.9941 5.42188 12.7972 5.76031L11.9291 7.23922L11.0853 8.67781L9.25297 11.8025V11.8077H11.9534C12.2919 11.8077 12.7161 11.9895 12.8877 12.282L12.9027 12.3125C13.0541 12.5698 13.1398 12.7466 13.1398 13.0039C13.1374 13.0875 13.1187 13.1698 13.085 13.2463L13.0836 13.2448ZM16.7281 13.25H15.4573V13.2552L16.3864 14.8353C16.4863 15.0017 16.5169 15.2007 16.4716 15.3895C16.4263 15.5782 16.3087 15.7416 16.1441 15.8445C16.03 15.9141 15.8989 15.9509 15.7653 15.9509C15.6383 15.9509 15.5134 15.918 15.4028 15.8554C15.2923 15.7928 15.1998 15.7027 15.1344 15.5938L13.7614 13.2566L12.9083 11.8034L11.8077 9.92188C11.6482 9.65321 11.5616 9.34764 11.5562 9.03529C11.5509 8.72294 11.6271 8.41458 11.7772 8.14062C11.9947 7.75672 12.1611 7.65594 12.1611 7.65594L14.6094 11.7969H16.7145C17.1083 11.7969 17.4463 12.0997 17.4645 12.4883C17.4683 12.5871 17.4521 12.6856 17.4168 12.778C17.3816 12.8704 17.328 12.9547 17.2594 13.0258C17.1907 13.0969 17.1084 13.1535 17.0174 13.192C16.9263 13.2305 16.8284 13.2503 16.7295 13.25H16.7281Z" fill="#484848"/>
    </symbol>

    <symbol id="icon-facebock" viewBox="0 0 24 24">
      <path d="M21.4286 0H2.57143C1.88944 0 1.23539 0.270918 0.753154 0.753154C0.270918 1.23539 0 1.88944 0 2.57143L0 21.4286C0 22.1106 0.270918 22.7646 0.753154 23.2468C1.23539 23.7291 1.88944 24 2.57143 24H9.92411V15.8405H6.54911V12H9.92411V9.07286C9.92411 5.74339 11.9063 3.90429 14.9421 3.90429C16.3961 3.90429 17.9164 4.16357 17.9164 4.16357V7.43143H16.2413C14.5907 7.43143 14.0759 8.45571 14.0759 9.50625V12H17.7605L17.1713 15.8405H14.0759V24H21.4286C22.1106 24 22.7646 23.7291 23.2468 23.2468C23.7291 22.7646 24 22.1106 24 21.4286V2.57143C24 1.88944 23.7291 1.23539 23.2468 0.753154C22.7646 0.270918 22.1106 0 21.4286 0Z"/>
    </symbol>

    <symbol id="icon-twitter" viewBox="0 0 27 24">
      <path d="M27 2.6096C26.0071 3.05059 24.9405 3.34856 23.8191 3.48324C24.9761 2.78933 25.8417 1.69719 26.2544 0.410618C25.1674 1.05779 23.9777 1.51332 22.737 1.75742C21.9027 0.864556 20.7977 0.272751 19.5934 0.0738863C18.3891 -0.124978 17.1531 0.080224 16.0771 0.657635C15.0011 1.23505 14.1454 2.15236 13.6429 3.26716C13.1403 4.38195 13.019 5.63186 13.2979 6.82283C11.0952 6.71198 8.9405 6.13817 6.97346 5.13862C5.00643 4.13907 3.27106 2.73613 1.87999 1.02085C1.40434 1.84324 1.13085 2.79672 1.13085 3.81219C1.13032 4.72634 1.35491 5.62649 1.78471 6.43277C2.21451 7.23906 2.83623 7.92654 3.59469 8.43423C2.71507 8.40617 1.85487 8.16795 1.08566 7.73937V7.81088C1.08557 9.09302 1.52805 10.3357 2.33801 11.3281C3.14798 12.3204 4.27554 13.0014 5.52938 13.2553C4.71339 13.4767 3.85788 13.5093 3.02748 13.3507C3.38124 14.4539 4.07033 15.4186 4.99828 16.1097C5.92623 16.8009 7.04659 17.1839 8.2025 17.2051C6.24027 18.7491 3.81692 19.5866 1.32229 19.5829C0.880397 19.583 0.438873 19.5571 0 19.5054C2.53219 21.1373 5.47984 22.0034 8.49027 22C18.681 22 24.252 13.5402 24.252 6.20306C24.252 5.96469 24.246 5.72393 24.2353 5.48556C25.3189 4.7001 26.2543 3.72744 26.9976 2.61318L27 2.6096Z"/>
    </symbol>

    <symbol id="icon-instagram" viewBox="0 0 24 24">
      <path d="M12 0C8.73784 0 8.33129 0.015752 7.05463 0.0697587C5.77272 0.132767 4.90561 0.331541 4.14052 0.628579C3.33976 0.930882 2.61457 1.40419 2.0155 2.0155C1.40248 2.61317 0.928914 3.33877 0.628579 4.14052C0.331541 4.90561 0.132767 5.77272 0.0697587 7.05463C0.0120015 8.33204 0 8.73784 0 12C0 15.2622 0.015752 15.6687 0.0697587 16.9454C0.132767 18.2235 0.331541 19.0944 0.628579 19.8595C0.930882 20.6602 1.40419 21.3854 2.0155 21.9845C2.61317 22.5975 3.33877 23.0711 4.14052 23.3714C4.90561 23.6647 5.77647 23.8672 7.05463 23.9302C8.33204 23.988 8.73784 24 12 24C15.2622 24 15.6687 23.9842 16.9454 23.9302C18.2235 23.8672 19.0944 23.664 19.8595 23.3714C20.6602 23.0691 21.3854 22.5958 21.9845 21.9845C22.5983 21.3875 23.072 20.6617 23.3714 19.8595C23.6647 19.0944 23.8672 18.2235 23.9302 16.9454C23.988 15.668 24 15.2622 24 12C24 8.73784 23.9842 8.33129 23.9302 7.05463C23.8672 5.77647 23.664 4.90111 23.3714 4.14052C23.0691 3.33976 22.5958 2.61457 21.9845 2.0155C21.3875 1.40169 20.6617 0.928001 19.8595 0.628579C19.0944 0.331541 18.2235 0.132767 16.9454 0.0697587C15.668 0.0120015 15.2622 0 12 0ZM12 2.16027C15.2037 2.16027 15.5862 2.17602 16.8524 2.23003C18.0203 2.28479 18.6563 2.47981 19.0786 2.64483C19.6007 2.83755 20.0732 3.14428 20.4618 3.54269C20.8595 3.92961 21.1651 4.40106 21.3559 4.92212C21.5209 5.34442 21.716 5.9805 21.7707 7.14839C21.8247 8.41455 21.8405 8.79785 21.8405 12.0007C21.8405 15.2037 21.8247 15.5869 21.7662 16.8531C21.7032 18.021 21.5082 18.6571 21.3439 19.0794C21.1166 19.6427 20.8631 20.0365 20.4446 20.4626C20.0547 20.8585 19.5825 21.1637 19.0614 21.3567C18.6443 21.5217 17.9993 21.7167 16.8269 21.7715C15.5539 21.8255 15.1789 21.8412 11.967 21.8412C8.7551 21.8412 8.3808 21.8255 7.10639 21.767C5.93849 21.704 5.29416 21.5089 4.87186 21.3447C4.30179 21.1174 3.91099 20.8639 3.49244 20.4453C3.07013 20.023 2.8016 19.621 2.59457 19.0621C2.42655 18.6451 2.23453 18 2.17227 16.8276C2.12952 15.5697 2.10926 15.1796 2.10926 11.9827C2.10926 8.78735 2.12952 8.39655 2.17227 7.12289C2.23453 5.95049 2.42655 5.30691 2.59457 4.88836C2.8016 4.31754 3.07088 3.92749 3.49244 3.50519C3.91024 3.08739 4.30179 2.81735 4.87186 2.60583C5.29416 2.44156 5.92274 2.24653 7.09514 2.18802C8.36805 2.14227 8.74309 2.12577 11.9505 2.12577L12 2.16027ZM12 5.84098C11.1909 5.84068 10.3897 5.99983 9.64212 6.30932C8.89456 6.61881 8.21531 7.07258 7.6432 7.6447C7.07108 8.21681 6.61731 8.89606 6.30782 9.64362C5.99833 10.3912 5.83918 11.1924 5.83948 12.0015C5.83918 12.8106 5.99833 13.6118 6.30782 14.3594C6.61731 15.1069 7.07108 15.7862 7.6432 16.3583C8.21531 16.9304 8.89456 17.3842 9.64212 17.6937C10.3897 18.0032 11.1909 18.1623 12 18.162C12.8091 18.1623 13.6103 18.0032 14.3579 17.6937C15.1054 17.3842 15.7847 16.9304 16.3568 16.3583C16.9289 15.7862 17.3827 15.1069 17.6922 14.3594C18.0017 13.6118 18.1608 12.8106 18.1605 12.0015C18.1608 11.1924 18.0017 10.3912 17.6922 9.64362C17.3827 8.89606 16.9289 8.21681 16.3568 7.6447C15.7847 7.07258 15.1054 6.61881 14.3579 6.30932C13.6103 5.99983 12.8091 5.84068 12 5.84098ZM12 16.0018C9.78872 16.0018 7.99975 14.2128 7.99975 12.0015C7.99975 9.79022 9.78872 8.00125 12 8.00125C14.2113 8.00125 16.0002 9.79022 16.0002 12.0015C16.0002 14.2128 14.2113 16.0018 12 16.0018ZM19.849 5.59495C19.8486 5.97725 19.6964 6.34375 19.426 6.61393C19.1555 6.88412 18.7888 7.03588 18.4066 7.03588C18.2175 7.03588 18.0303 6.99865 17.8557 6.92631C17.6811 6.85397 17.5224 6.74794 17.3887 6.61428C17.2551 6.48062 17.149 6.32194 17.0767 6.1473C17.0044 5.97266 16.9671 5.78548 16.9671 5.59645C16.9671 5.40742 17.0044 5.22024 17.0767 5.0456C17.149 4.87096 17.2551 4.71228 17.3887 4.57862C17.5224 4.44496 17.6811 4.33893 17.8557 4.26659C18.0303 4.19425 18.2175 4.15702 18.4066 4.15702C19.1994 4.15702 19.849 4.8021 19.849 5.59495Z" />
    </symbol>

    <symbol id="icon-linkedin" viewBox="0 0 24 24">
      <path fill-rule="evenodd" clip-rule="evenodd" d="M2.96792e-07 2.00509C2.96792e-07 1.47331 0.21125 0.963308 0.587278 0.58728C0.963305 0.211253 1.47331 2.67307e-06 2.00509 2.67307e-06H21.9927C22.2563 -0.000427747 22.5173 0.0511258 22.7609 0.151712C23.0045 0.252298 23.2258 0.399941 23.4123 0.586188C23.5987 0.772435 23.7466 0.993628 23.8475 1.2371C23.9483 1.48058 24.0001 1.74156 24 2.00509V21.9927C24.0003 22.2563 23.9486 22.5174 23.8479 22.761C23.7472 23.0046 23.5994 23.2259 23.4131 23.4123C23.2268 23.5988 23.0055 23.7466 22.762 23.8475C22.5184 23.9483 22.2574 24.0001 21.9938 24H2.00509C1.74169 24 1.48086 23.9481 1.23752 23.8473C0.994184 23.7464 0.773096 23.5986 0.586892 23.4123C0.400688 23.226 0.253017 23.0049 0.152316 22.7615C0.0516145 22.5181 -0.000143013 22.2572 2.96792e-07 21.9938V2.00509ZM9.49964 9.15055H12.7495V10.7825C13.2185 9.84437 14.4185 9 16.2218 9C19.6789 9 20.4982 10.8687 20.4982 14.2975V20.6487H16.9996V15.0785C16.9996 13.1258 16.5305 12.024 15.3393 12.024C13.6865 12.024 12.9993 13.212 12.9993 15.0785V20.6487H9.49964V9.15055ZM3.49964 20.4993H6.99927V9H3.49964V20.4982V20.4993ZM7.5 5.24946C7.5066 5.5491 7.45328 5.84704 7.34317 6.1258C7.23306 6.40456 7.06838 6.65851 6.8588 6.87276C6.64921 7.08702 6.39894 7.25725 6.12268 7.37346C5.84641 7.48968 5.54972 7.54955 5.25 7.54955C4.95028 7.54955 4.65359 7.48968 4.37732 7.37346C4.10106 7.25725 3.85079 7.08702 3.6412 6.87276C3.43162 6.65851 3.26694 6.40456 3.15683 6.1258C3.04672 5.84704 2.9934 5.5491 3 5.24946C3.01295 4.6613 3.25569 4.10159 3.67624 3.69021C4.09678 3.27882 4.6617 3.04846 5.25 3.04846C5.8383 3.04846 6.40322 3.27882 6.82376 3.69021C7.24431 4.10159 7.48705 4.6613 7.5 5.24946Z" />
    </symbol>
</svg>